<svg width="20" height="21" viewBox="0 0 20 21" fill="none" xmlns="http://www.w3.org/2000/svg">
<path d="M8.00014 0.361739C8.13029 0.516458 8.21003 0.705804 8.22904 0.905313C8.24806 1.10482 8.20548 1.30533 8.10681 1.48092C7.33594 2.86551 6.93336 4.41751 6.93612 5.99415C6.93612 11.2392 11.3069 15.4863 16.6936 15.4863C17.3963 15.4863 18.0803 15.4145 18.7377 15.2776C18.9392 15.2349 19.1491 15.2512 19.3411 15.3245C19.5332 15.3978 19.699 15.5249 19.8177 15.6898C19.943 15.8612 20.0069 16.0684 19.9994 16.2791C19.9919 16.4897 19.9135 16.6921 19.7763 16.8546C18.7306 18.1113 17.4113 19.1239 15.9147 19.8184C14.4181 20.513 12.782 20.8721 11.1255 20.8696C4.97875 20.8696 0 16.025 0 10.0561C0 5.5637 2.81872 1.71049 6.83212 0.0773797C7.03204 -0.00527788 7.25398 -0.022243 7.46459 0.0290329C7.67521 0.0803087 7.86314 0.197057 8.00014 0.361739V0.361739Z" fill="#244A84"/>
</svg>
