<svg width="50" height="50" viewBox="0 0 50 50" fill="none" xmlns="http://www.w3.org/2000/svg">
<path d="M49.2522 31.0457C45.9119 44.4457 32.3355 52.5914 18.9547 49.251C5.55427 45.9108 -2.59144 32.335 0.748997 18.9543C4.08923 5.55427 17.6459 -2.59143 31.0463 0.748999C44.4272 4.0697 52.5926 17.6455 49.2522 31.0457Z" fill="url(#paint0_linear_318_158)"/>
<path d="M36.9033 21.8848C37.3916 18.5644 34.8721 16.7676 31.3955 15.5762L32.5283 11.0644L29.7939 10.3808L28.7002 14.7754C27.9775 14.5996 27.2353 14.4238 26.4932 14.2676L27.5869 9.85349L24.8525 9.1699L23.7392 13.6621C23.1338 13.5254 22.5478 13.3887 21.9814 13.2519V13.2324L18.1924 12.2949L17.4697 15.2246C17.4697 15.2246 19.501 15.6933 19.4619 15.7129C20.5752 15.9863 20.7705 16.7285 20.7314 17.3144L19.4424 22.4512C19.5205 22.4707 19.6182 22.4902 19.7353 22.5488C19.6377 22.5293 19.54 22.5098 19.4424 22.4707L17.6455 29.6582C17.5088 29.9902 17.1572 30.498 16.3955 30.3027C16.415 30.3418 14.4033 29.8144 14.4033 29.8144L13.0361 32.959L16.6103 33.8574C17.2744 34.0332 17.9189 34.1894 18.5635 34.3652L17.4307 38.916L20.165 39.5996L21.2978 35.0879C22.04 35.2832 22.7822 35.4785 23.4853 35.6543L22.3721 40.1465L25.1064 40.8301L26.2393 36.2793C30.9268 37.1582 34.4424 36.8066 35.9072 32.5684C37.0986 29.1699 35.8486 27.1973 33.3877 25.9082C35.2041 25.498 36.5518 24.3066 36.9033 21.8848ZM30.6338 30.6738C29.7939 34.0723 24.0518 32.2363 22.1963 31.7676L23.7002 25.7324C25.5557 26.2012 31.5322 27.1191 30.6338 30.6738ZM31.4932 21.8262C30.7119 24.9316 25.9463 23.3496 24.4033 22.959L25.7705 17.4902C27.3135 17.8808 32.2939 18.6035 31.4932 21.8262Z" fill="white"/>
<defs>
<linearGradient id="paint0_linear_318_158" x1="24.9865" y1="-0.012" x2="24.9865" y2="49.995" gradientUnits="userSpaceOnUse">
<stop stop-color="#F9AA4B"/>
<stop offset="1" stop-color="#F7931A"/>
</linearGradient>
</defs>
</svg>
