<svg width="55" height="62" viewBox="0 0 55 62" fill="none" xmlns="http://www.w3.org/2000/svg">
<path d="M52.5 28.9171H50C50 19.593 42.175 12.0517 32.5 12.0517H30V8.99182C30.7603 8.56878 31.3916 7.96029 31.8304 7.22752C32.2693 6.49474 32.5002 5.66353 32.5 4.81746C32.4998 3.9714 32.2684 3.1403 31.8292 2.40775C31.3899 1.67519 30.7583 1.06701 29.9978 0.644348C29.2373 0.22169 28.3747 -0.000541268 27.4968 9.89981e-07C26.6189 0.000543248 25.7566 0.223841 24.9967 0.647438C24.2367 1.07104 23.6059 1.68 23.1676 2.41309C22.7294 3.14619 22.4991 3.97757 22.5 4.82364C22.5 6.60656 23.5 8.17264 25 8.99182V12.0517H22.5C12.825 12.0517 5 19.593 5 28.9171H2.5C1.125 28.9171 0 30.0014 0 31.3265V38.5546C0 39.8797 1.125 40.9639 2.5 40.9639H5V43.3733C5 44.6513 5.52678 45.8769 6.46447 46.7806C7.40215 47.6843 8.67392 48.192 10 48.192H45C47.775 48.192 50 46.0476 50 43.3733V40.9639H52.5C53.875 40.9639 55 39.8797 55 38.5546V31.3265C55 30.0014 53.875 28.9171 52.5 28.9171ZM19.2 36.2416L16.25 33.3985L13.3 36.2416L10.35 33.3985L16.25 27.7125L22.15 33.3985L19.2 36.2416ZM41.7 36.2416L38.75 33.3985L35.8 36.2416L32.85 33.3985L38.75 27.7125L44.65 33.3985L41.7 36.2416Z" fill="#111BFF"/>
<path d="M13.7263 58.7565C12.8722 58.7565 12.0871 58.5637 11.371 58.1782C10.6635 57.7926 10.0984 57.2562 9.67569 56.569C9.26157 55.8733 9.05451 55.0939 9.05451 54.2306C9.05451 53.3674 9.26157 52.5921 9.67569 51.9048C10.0984 51.2176 10.6635 50.6812 11.371 50.2956C12.0871 49.9101 12.8722 49.7173 13.7263 49.7173C14.5804 49.7173 15.3612 49.9101 16.0686 50.2956C16.7847 50.6812 17.3455 51.2176 17.751 51.9048C18.1651 52.5921 18.3722 53.3674 18.3722 54.2306C18.3722 55.0939 18.1651 55.8733 17.751 56.569C17.3369 57.2562 16.7761 57.7926 16.0686 58.1782C15.3612 58.5637 14.5804 58.7565 13.7263 58.7565ZM13.7263 56.7953C14.451 56.7953 15.029 56.5606 15.4604 56.0912C15.9004 55.6219 16.1204 55.0017 16.1204 54.2306C16.1204 53.4512 15.9004 52.831 15.4604 52.37C15.029 51.9006 14.451 51.666 13.7263 51.666C12.9929 51.666 12.4063 51.8965 11.9663 52.3574C11.5349 52.8184 11.3192 53.4428 11.3192 54.2306C11.3192 55.0101 11.5349 55.6345 11.9663 56.1038C12.4063 56.5648 12.9929 56.7953 13.7263 56.7953Z" fill="#244A84"/>
<path d="M19.1633 55.1484C19.1633 54.4276 19.3013 53.7948 19.5774 53.25C19.8621 52.7052 20.246 52.2862 20.7292 51.9928C21.2123 51.6995 21.7515 51.5528 22.3468 51.5528C22.8213 51.5528 23.2527 51.6492 23.6409 51.842C24.0378 52.0347 24.3484 52.2946 24.5727 52.6214V49.3653H26.7856V58.6685H24.5727V57.6627C24.3656 57.998 24.068 58.2662 23.6798 58.4673C23.3001 58.6685 22.8558 58.769 22.3468 58.769C21.7515 58.769 21.2123 58.6224 20.7292 58.329C20.246 58.0273 19.8621 57.6041 19.5774 57.0593C19.3013 56.5061 19.1633 55.8691 19.1633 55.1484ZM24.5727 55.1609C24.5727 54.6245 24.4174 54.2013 24.1068 53.8912C23.8049 53.5811 23.4339 53.426 22.9939 53.426C22.5539 53.426 22.1786 53.5811 21.868 53.8912C21.566 54.1929 21.4151 54.612 21.4151 55.1484C21.4151 55.6848 21.566 56.1122 21.868 56.4307C22.1786 56.7408 22.5539 56.8958 22.9939 56.8958C23.4339 56.8958 23.8049 56.7408 24.1068 56.4307C24.4174 56.1206 24.5727 55.6973 24.5727 55.1609Z" fill="#244A84"/>
<path d="M27.9466 55.1484C27.9466 54.4276 28.0846 53.7948 28.3607 53.25C28.6454 52.7052 29.0294 52.2862 29.5125 51.9928C29.9956 51.6995 30.5348 51.5528 31.1301 51.5528C31.6046 51.5528 32.036 51.6492 32.4243 51.842C32.8211 52.0347 33.1317 52.2946 33.356 52.6214V49.3653H35.569V58.6685H33.356V57.6627C33.149 57.998 32.8513 58.2662 32.4631 58.4673C32.0835 58.6685 31.6392 58.769 31.1301 58.769C30.5348 58.769 29.9956 58.6224 29.5125 58.329C29.0294 58.0273 28.6454 57.6041 28.3607 57.0593C28.0846 56.5061 27.9466 55.8691 27.9466 55.1484ZM33.356 55.1609C33.356 54.6245 33.2007 54.2013 32.8901 53.8912C32.5882 53.5811 32.2172 53.426 31.7772 53.426C31.3372 53.426 30.9619 53.5811 30.6513 53.8912C30.3493 54.1929 30.1984 54.612 30.1984 55.1484C30.1984 55.6848 30.3493 56.1122 30.6513 56.4307C30.9619 56.7408 31.3372 56.8958 31.7772 56.8958C32.2172 56.8958 32.5882 56.7408 32.8901 56.4307C33.2007 56.1206 33.356 55.6973 33.356 55.1609Z" fill="#244A84"/>
<path d="M44.5464 51.6534L40.017 62H37.6358L39.2923 58.4296L36.3546 51.6534H38.8264L40.4958 56.041L42.1523 51.6534H44.5464Z" fill="#244A84"/>
</svg>
